<?xml version="1.0" standalone="no"?>
<!DOCTYPE svg PUBLIC "-//W3C//DTD SVG 20010904//EN"
 "http://www.w3.org/TR/2001/REC-SVG-20010904/DTD/svg10.dtd">
<svg version="1.0" xmlns="http://www.w3.org/2000/svg"
 width="20.000000pt" height="20.000000pt" viewBox="0 0 20.000000 20.000000"
 preserveAspectRatio="xMidYMid meet">

<g transform="translate(0.000000,20.000000) scale(0.100000,-0.100000)"
fill="#000000" stroke="none">
<path d="M100 162 c0 -17 48 -64 61 -60 5 2 -6 19 -26 38 -19 18 -35 28 -35
22z"/>
<path d="M76 124 c-4 -10 1 -25 10 -35 19 -22 23 -22 44 -9 12 7 11 13 -10 34
-28 30 -36 32 -44 10z"/>
<path d="M42 77 c-22 -23 -22 -24 -4 -40 17 -16 20 -16 40 6 22 23 22 24 4 40
-17 16 -20 16 -40 -6z"/>
<path d="M0 34 c0 -3 7 -12 15 -21 20 -19 32 -9 15 12 -12 15 -30 20 -30 9z"/>
</g>
</svg>
