<?xml version="1.0" standalone="no"?>
<!DOCTYPE svg PUBLIC "-//W3C//DTD SVG 20010904//EN"
 "http://www.w3.org/TR/2001/REC-SVG-20010904/DTD/svg10.dtd">
<svg version="1.0" xmlns="http://www.w3.org/2000/svg"
 width="512.000000pt" height="512.000000pt" viewBox="0 0 512.000000 512.000000"
 preserveAspectRatio="xMidYMid meet">

<g transform="translate(0.000000,512.000000) scale(0.100000,-0.100000)"
fill="#000000" stroke="none">
<path d="M3728 4795 c-35 -19 -48 -44 -48 -91 0 -35 10 -48 157 -196 l158
-158 -845 -845 -845 -845 -385 385 c-212 211 -398 389 -413 395 -46 17 -80 12
-128 -19 -58 -38 -1032 -1016 -1053 -1058 -36 -72 -19 -114 97 -231 106 -108
129 -122 193 -122 l48 0 396 395 395 395 380 -380 c209 -209 394 -387 412
-395 40 -19 76 -19 116 1 18 9 472 455 1009 992 l978 977 158 -158 c151 -150
160 -157 198 -157 47 0 77 19 93 57 8 21 11 163 9 521 l-3 492 -28 27 -27 28
-498 2 c-425 2 -501 0 -524 -12z"/>
<path d="M3942 3267 l-352 -352 0 -1245 c0 -1389 -5 -1288 69 -1337 33 -22 41
-23 288 -23 280 0 292 2 335 62 l23 33 3 1608 c1 884 -1 1607 -5 1607 -5 0
-167 -159 -361 -353z"/>
<path d="M3023 2348 l-353 -353 0 -795 c0 -780 0 -796 20 -828 36 -59 61 -63
350 -60 l259 3 35 34 c20 19 38 49 41 65 3 17 4 538 3 1159 l-3 1127 -352
-352z"/>
<path d="M1132 2157 l-323 -322 3 -710 c3 -693 3 -711 23 -745 39 -66 59 -70
341 -70 244 0 252 1 285 23 74 49 69 -22 69 1082 l0 991 -38 37 -37 36 -323
-322z"/>
<path d="M1740 1307 c0 -990 -4 -934 70 -976 36 -20 52 -21 287 -21 278 0 298
4 338 71 19 33 20 55 23 733 l3 699 -33 -9 c-18 -5 -76 -9 -128 -9 -146 0
-174 16 -386 227 l-174 172 0 -887z"/>
</g>
</svg>
